<svg height="368pt" viewBox="0 0 368 368" width="368pt" xmlns="http://www.w3.org/2000/svg"><path d="m360 128h-88v-88c0-22.054688-17.945312-40-40-40h-96c-22.054688 0-40 17.945312-40 40v88h-88c-4.425781 0-8 3.585938-8 8v64c0 4.414062 3.574219 8 8 8h24v152c0 4.414062 3.574219 8 8 8h288c4.425781 0 8-3.585938 8-8v-152h24c4.425781 0 8-3.585938 8-8v-64c0-4.414062-3.574219-8-8-8zm-248-88c0-13.230469 10.769531-24 24-24h96c13.230469 0 24 10.769531 24 24v88h-144zm208 312h-272v-144h272zm32-160h-336v-48h336zm0 0"/><path d="m88 320h192c4.425781 0 8-3.585938 8-8v-64c0-4.414062-3.574219-8-8-8h-192c-4.425781 0-8 3.585938-8 8v64c0 4.414062 3.574219 8 8 8zm8-64h176v48h-176zm0 0"/></svg>