<svg width="512" height="512" viewBox="0 0 512 512" fill="none" xmlns="http://www.w3.org/2000/svg">
<path d="M450.006 289.793C490.679 256.615 511.995 217.73 511.995 176.008C511.995 101.571 450.986 41.0107 375.998 41.0107C336.088 41.0107 302.048 51.8415 275.702 82.2389C263.012 77.204 247.098 73.0101 232 73.0101C170.796 73.0101 121.002 122.803 121.002 184.008C121.002 237.257 163.204 285.199 217.637 295.14C215.745 308.496 218.147 321.725 224.245 333.289C201.877 342.414 184.273 362.021 178.795 385.004H155.524C150.485 375.498 140.49 369.004 129.003 369.004H95.004C80.5113 369.004 68.3865 379.335 65.6056 393.019C64.3976 392.996 64.7006 393.004 30.0053 393.004C13.4636 393.004 0.00585938 406.462 0.00585938 423.003V457.003C0.00585938 473.544 13.4636 487.002 30.0053 487.002C64.7546 487.002 64.2176 487.008 65.4276 486.991C67.8115 501.166 80.1623 512.002 95.004 512.002H129.003C143.841 512.002 156.19 501.171 158.578 487.002H407.998C465.343 487.002 511.996 440.797 511.996 384.004C511.995 342.01 486.483 305.81 450.006 289.793ZM30.0043 457.003V423.003H65.0036V457.003H30.0043ZM129.002 482.002H95.003C95.003 463.31 95.003 415.809 95.003 399.004H129.002V482.002ZM407.997 457.003H159.002V415.003H192.001C200.285 415.003 207.001 408.288 207.001 400.004C207.001 379.224 225.877 360.196 247.611 358.018C257.082 363.718 268.163 367.004 279.999 367.004C288.283 367.004 294.999 360.289 294.999 352.005C294.999 343.721 288.283 337.005 279.999 337.005C261.804 337.005 247 322.201 247 304.006C247 285.81 261.804 271.006 279.999 271.006C288.283 271.006 294.999 264.29 294.999 256.007C294.999 247.723 288.283 241.007 279.999 241.007C259.277 241.007 240.864 251.068 229.375 266.557C186.787 262.407 151.002 225.616 151.002 184.008C151.002 139.345 187.338 103.01 232 103.01C240.196 103.01 249.485 104.974 257.911 107.715C252.453 117.245 247.248 128.079 242.133 140.482C238.975 148.141 242.622 156.909 250.281 160.067C257.942 163.227 266.709 159.577 269.867 151.921C294.504 92.1837 322.276 71.0112 375.998 71.0112C434.444 71.0112 481.995 118.113 481.995 176.009C481.995 223.711 444.442 259.101 411.248 281.062C395.03 280.571 379.492 283.727 365.032 290.373C357.505 293.832 354.207 302.739 357.666 310.265C361.124 317.791 370.026 321.09 377.559 317.632C425.327 295.68 481.995 330.411 481.995 384.006C481.995 424.256 448.8 457.003 407.997 457.003Z" fill="url(#paint0_linear)"/>
<path d="M104.003 95.0085C129.918 95.0085 151.002 73.9249 151.002 48.0094C151.002 35.5127 146.191 23.6139 137.457 14.5021C118.925 -4.83153 89.0853 -4.83653 70.5486 14.5021C61.8148 23.6129 57.0039 35.5127 57.0039 48.0094C57.0039 73.9249 78.0875 95.0085 104.003 95.0085V95.0085ZM104.003 30.0098C113.059 30.0098 121.003 38.4206 121.003 48.0094C121.003 57.3833 113.377 65.0091 104.003 65.0091C94.6292 65.0091 87.0033 57.3833 87.0033 48.0094C87.0033 38.4206 94.9472 30.0098 104.003 30.0098Z" fill="url(#paint1_linear)"/>
<defs>
<linearGradient id="paint0_linear" x1="256.001" y1="41.0107" x2="256.001" y2="512.002" gradientUnits="userSpaceOnUse">
<stop stop-color="#26A099"/>
<stop offset="1" stop-color="#145450"/>
</linearGradient>
<linearGradient id="paint1_linear" x1="104.003" y1="0" x2="104.003" y2="95.0085" gradientUnits="userSpaceOnUse">
<stop stop-color="#26A099"/>
<stop offset="1" stop-color="#145450"/>
</linearGradient>
</defs>
</svg>
