<svg width="316" height="615" viewBox="0 0 316 615" fill="none" xmlns="http://www.w3.org/2000/svg">
<path d="M92.4996 1.32724C81.2996 4.92724 72.2996 12.4272 67.3996 22.4272L64.4996 28.4272L64.1996 55.8272C63.9996 70.9272 64.0996 84.3272 64.4996 85.6272C65.6996 90.7272 67.4996 90.9272 112.5 90.9272C135.3 90.9272 154 90.5272 154 90.0272C154 89.6272 151.2 88.9272 147.7 88.7272C137 87.8272 124 80.5272 124 75.3272C124 70.9272 122.2 69.0272 116.4 67.3272C110.7 65.7272 108.6 63.7272 107 58.1272C105.8 53.7272 107.1 49.6272 110.3 48.1272C114.5 46.1272 116.7 48.1272 121.2 57.5272C123.3 62.1272 125.5 65.9272 125.9 65.9272C126.4 65.9272 127.1 62.4272 127.5 58.1272L128.2 50.2272L135.8 49.1272C140.1 48.5272 145.6 47.7272 148.3 47.3272L153 46.7272L152.8 52.4272C152.4 59.6272 154.4 61.0272 155.4 54.3272C156.3 47.3272 156.1 33.9272 155.1 33.9272C154.6 33.9272 153.8 34.8272 153.5 35.9272C153 37.3272 152 37.9272 149.8 37.9272C146.2 37.9272 139 41.7272 139 43.6272C139 44.6272 139.8 44.3272 141.8 42.9272C143.4 41.7272 146.6 40.5272 148.8 40.2272C152.7 39.7272 153 39.8272 153 42.1272C153 44.5272 152.6 44.6272 144.3 45.8272C139.4 46.5272 134 47.3272 132.3 47.6272C129.3 48.1272 129 47.9272 129 45.8272C129 40.4272 130.1 39.3272 141.3 33.0272C147.5 29.6272 153.6 26.0272 154.9 25.0272C157.1 23.3272 157.1 23.1272 155.6 19.5272C154.7 17.4272 152.7 14.0272 151 11.9272C147.5 7.52724 138.6 1.42724 136.7 2.22724C136.1 2.52724 131.2 10.6272 126 20.2272C120.8 29.9272 116.4 37.6272 116.2 37.5272C116 37.2272 122.5 12.5272 125.6 1.62724C126.1 0.0272447 125 -0.0727553 111.3 0.0272447C102.3 0.0272447 94.8996 0.527245 92.4996 1.32724Z" fill="#1F1F1F"/>
<path d="M238 88.5275C235 92.2275 231.5 96.4275 230.2 98.0275L228 100.728L231.2 105.928C233.6 109.728 234.5 112.628 235 117.728C235.4 122.328 235.9 123.828 236.4 122.628C236.9 121.628 237 118.828 236.7 116.428C236.5 113.928 236.3 111.928 236.5 111.928C236.6 111.928 239.7 115.528 243.4 119.928C252.3 130.528 253.3 130.528 261.8 120.328C265.2 116.128 268 112.128 268 111.428C268 110.128 261.1 100.928 260.1 100.928C259.8 100.928 258.3 102.328 256.9 104.128C255.1 106.228 253.8 107.028 252.6 106.628C249.7 105.528 249.7 103.028 252.5 99.3275C254 97.4275 254.9 95.5275 254.6 95.1275C254.2 94.8275 253.3 95.4275 252.6 96.5275C248 102.828 248.4 102.628 246.1 100.528C243.4 98.1275 243.5 97.5275 246.4 93.6275C247.6 91.8275 249 89.9275 249.4 89.2275C250 88.1275 245.6 81.9275 244.2 81.9275C243.8 81.9275 241 84.9275 238 88.5275Z" fill="#1F1F1F"/>
<path d="M161 89.9272C161 90.5272 161.4 90.9272 161.9 90.9272C162.4 90.9272 163.6 91.6272 164.4 92.5272C166.4 94.5272 166.7 108.627 164.8 111.227C163.6 112.727 159.9 112.927 127.8 113.027H92.1001L88.7001 110.527C83.9001 106.827 79.4001 107.027 77.2001 110.927C75.6001 113.727 75.1001 113.927 69.6001 113.927C61.6001 113.927 55.6001 116.827 52.1001 122.527C50.6001 124.827 46.7001 133.527 43.5001 141.827C38.3001 155.427 37.5001 156.927 35.4001 156.927C32.1001 156.927 29.5001 159.827 27.5001 165.927C25.8001 171.027 25.8001 171.227 27.8001 173.827C29.8001 176.527 29.8001 176.627 27.9001 182.027C26.3001 186.827 26.1001 190.327 26.2001 213.927L26.4001 240.427L27.0001 221.927L27.5001 203.427L29.4001 207.727C32.2001 213.927 38.2001 219.627 45.3001 223.027L51.5001 225.927L52.1001 233.127L52.6001 240.427L52.8001 233.127L53.0001 225.927H67.1001H81.2001L80.8001 223.527L80.3001 221.027L93.9001 220.527C101.4 220.227 108.2 220.027 109 220.027C109.8 219.927 114.2 220.227 118.7 220.527C126.7 221.127 126.8 221.127 125.8 223.427C123.6 228.227 129.5 232.927 133.1 229.227C134.1 228.227 135.8 224.927 136.8 221.927L138.7 216.427L154.3 216.127C169.6 215.927 170 215.927 170 217.927C170 221.027 166.4 227.427 163.4 229.827C161.9 231.027 161 232.327 161.4 232.727C162.8 234.027 169.9 225.127 171.2 220.427L172.4 215.927H178.2C181.4 215.927 184 215.527 184 214.927C184 214.327 181.3 213.927 178 213.927C172.5 213.927 172 213.727 172 211.627C171.9 206.927 165.7 196.927 162.8 196.927C162.1 196.927 163 198.427 164.7 200.127C168.2 203.727 170 207.727 170 211.527V213.927H154.9C141 213.927 139.9 213.827 140.4 212.127C140.7 211.227 142.7 205.927 144.8 200.427L148.6 190.427L167.8 190.127C184.5 189.927 187.1 190.127 187.6 191.427C188 192.327 187.5 197.027 186.6 201.827C184.7 212.227 184.7 212.227 185.9 211.527C186.4 211.227 187.5 206.527 188.4 201.227C189.3 195.827 190.5 188.827 191.2 185.727L192.2 180.027L198.3 184.927C201.6 187.627 204.7 189.627 205.2 189.327C205.7 189.027 203.1 186.427 199.5 183.627L193 178.427L192.8 171.427C192.8 167.627 192.8 163.527 192.9 162.427C193 161.427 192.7 159.827 192.4 158.927C191.9 157.827 191.5 158.227 191.1 160.427L190.5 163.427L159.1 163.727L127.8 163.927L128.5 161.727C128.8 160.427 129.4 155.027 129.7 149.727L130.3 139.927L157.4 139.627L184.5 139.427L157.3 139.127L130 138.927V133.427C130 126.627 128.1 121.827 123.8 117.927L120.6 114.927H141.6C168 114.927 167 115.427 167 102.527C167 96.6272 166.5 92.7272 165.8 91.7272C164.2 89.8272 161 88.6272 161 89.9272ZM115.3 116.027C119.3 118.127 122 121.227 122.6 124.627C122.9 126.427 123.6 127.927 124.1 127.927C125.5 127.927 125.2 125.627 123.1 121.527L121.1 117.727L123.2 119.527C126.4 122.527 127.8 126.127 128.1 132.427C128.4 138.327 128.3 138.427 125.7 138.727C122.7 139.127 122.5 138.727 124 135.827C124.7 134.527 124.7 133.927 124 133.927C123.5 133.927 121.4 137.027 119.5 140.927C117.6 144.727 115.4 147.927 114.7 147.827C114.1 147.827 107.2 143.827 99.5001 139.027C88.0001 131.827 85.5001 129.827 85.7001 128.027C86.1001 124.427 91.0001 117.827 94.3001 116.427C98.2001 114.727 112.3 114.527 115.3 116.027ZM98.1001 140.027C105.5 144.427 112.1 148.627 112.9 149.427C114 150.527 113.5 152.227 109.2 160.527C106.5 165.927 103.5 170.827 102.7 171.327C101.5 172.027 97.2001 170.427 86.1001 164.927C77.8001 160.827 71.0001 156.927 71.0001 156.227C71.0001 154.527 83.0001 131.927 83.9001 131.927C84.3001 131.927 90.7001 135.527 98.1001 140.027ZM128.1 149.027C128 153.827 127.5 159.027 127.1 160.527C126.4 163.427 126.2 163.427 118.2 163.727C113.7 163.927 110 163.727 110 163.427C110 163.127 111.1 160.627 112.5 157.927C113.9 155.227 115 152.327 115 151.627C115 150.827 115.7 149.627 116.6 148.827C117.4 148.127 119 145.827 120.1 143.727C121.9 140.327 122.5 139.827 125.2 140.127L128.3 140.427L128.1 149.027ZM95.9001 171.427C98.7001 172.827 101 174.427 101 175.027C101 176.527 96.1001 185.927 95.2001 185.927C94.8001 185.927 93.5001 185.227 92.3001 184.427C91.2001 183.627 87.0001 182.427 83.1001 181.727L76.0001 180.527L65.7001 184.827C60.1001 187.127 54.9001 189.327 54.1001 189.727C52.6001 190.327 66.0001 163.727 68.7001 160.727C70.0001 159.227 71.0001 159.527 80.5001 163.927C86.2001 166.627 93.1001 170.027 95.9001 171.427ZM123.4 170.127C121 175.027 114.2 183.527 111.4 185.427C109.6 186.627 107.7 186.927 105.2 186.427C98.7001 185.327 98.5001 184.927 101.8 178.327C108.1 165.427 107.5 166.027 116.5 165.727C120.9 165.527 124.6 165.727 124.8 166.127C125 166.527 124.4 168.327 123.4 170.127ZM191 166.927C191.8 168.427 191.8 171.127 191 176.627C188.9 190.127 191.1 188.927 168.6 188.927C152.1 188.927 148.7 188.627 146.2 187.227C143.4 185.627 143.1 185.627 140.7 187.227C138.6 188.527 135.7 188.927 126.6 188.927C120.3 188.927 114.5 188.627 113.6 188.327C112.3 187.827 113.1 186.527 117.2 182.027C120 178.927 123.3 174.427 124.4 171.927C125.6 169.427 126.9 166.827 127.3 166.127C127.9 165.227 135.4 164.927 159 164.927C189.1 164.927 190 165.027 191 166.927ZM84.0001 183.527C87.8001 184.327 91.3001 185.627 91.8001 186.227C92.4001 187.027 90.1001 192.227 84.9001 201.927C80.6001 209.927 76.6001 217.027 75.9001 217.827C74.2001 219.727 59.6001 218.827 55.2001 216.527C50.0001 213.827 47.8001 209.527 48.3001 202.727C48.7001 195.827 50.8001 193.127 58.3001 189.927C61.2001 188.727 65.8001 186.727 68.5001 185.427C72.9001 183.427 75.9001 182.227 76.8001 182.027C77.0001 181.927 80.2001 182.627 84.0001 183.527ZM108.7 188.927C113.5 190.127 117.8 191.327 118.2 191.727C118.6 192.127 116.4 198.127 113.4 205.127C109.2 214.627 107.3 217.927 105.7 218.327C102.1 219.327 80.2001 219.027 79.5001 218.027C79.0001 217.127 91.8001 191.427 94.3001 188.127C95.6001 186.427 98.5001 186.627 108.7 188.927ZM146.3 189.327C146.6 190.127 144.6 196.527 141.9 203.627C139.1 210.627 135.9 219.027 134.7 222.327C132.3 228.627 130.7 230.027 128.4 227.727C127.1 226.427 127.7 224.127 133.4 208.827C136.9 199.227 140.1 190.627 140.5 189.627C141.4 187.527 145.6 187.327 146.3 189.327ZM129.1 193.527C132.9 194.327 136 195.627 136 196.227C136 196.827 134.1 202.227 131.8 208.227L127.5 219.027L119.3 218.727C114.8 218.527 110.9 218.127 110.6 217.827C110.1 217.427 118.7 195.927 120.5 192.827C121.3 191.627 120.9 191.627 129.1 193.527Z" fill="#1F1F1F"/>
<path d="M216.4 132.827C217.2 134.027 213.1 139.127 211.9 138.427C211.4 138.027 211 138.227 211 138.627C211 139.527 228.5 153.927 229.6 153.927C229.9 153.927 229.9 153.227 229.6 152.327C228.8 150.227 231.7 145.627 233.2 146.527C233.8 146.927 234.1 146.627 233.8 145.827C233.6 145.027 229.8 141.627 225.4 138.227C218.1 132.427 215.1 130.627 216.4 132.827Z" fill="#1F1F1F"/>
<path d="M89 239.927C89 240.427 89.4 240.927 89.9 240.927C90.4 240.927 91.1 243.327 91.6 246.127L92.4 251.427L93 245.927L93.5 240.427L94.4 245.627C95.2 250.727 94.6 253.427 93 252.427C92.6 252.127 92 253.227 91.7 254.727C91.4 256.227 90.1 260.127 88.7 263.427C83.6 275.527 81.7 292.627 84 305.027C84.9 309.727 83.9 318.627 76 376.327L66.9 442.327L58 459.427C49.9 475.127 23 533.727 23 535.927C23 536.427 27.3 539.427 32.5 542.527C41 547.527 42.2 548.027 43.3 546.627C44 545.727 56.9 529.027 72 509.427C87.1 489.927 101.3 470.827 103.6 467.127C109.6 457.127 113.1 447.827 119.5 423.627C122.7 411.727 125.7 402.227 126.1 402.627C126.5 403.127 144.2 440.427 165.5 485.627C186.8 530.927 204.8 567.927 205.4 567.927C206.9 567.927 224 560.427 225 559.327C226.2 557.927 199.5 452.827 176.6 368.627C165.3 326.927 156 292.027 156 291.127C156 290.227 158.3 281.127 161 270.927C164.2 258.927 166 250.427 166 246.627C166 238.927 167.8 239.327 168.3 247.127L168.6 253.427L168.8 247.127C168.9 243.727 169.5 240.927 170 240.927C170.6 240.927 171.1 243.727 171.1 247.127L171.3 253.427L172.2 247.127C172.7 243.727 173.6 240.927 174.1 240.927C174.6 240.927 175 240.427 175 239.927C175 239.227 160 238.927 132 238.927C104 238.927 89 239.227 89 239.927ZM103.1 261.327C100.2 270.727 98.6 284.127 99.4 293.427C100.7 310.627 101.4 312.427 153.7 427.727C181 488.027 204.2 539.427 205.3 541.927C206.4 544.427 207.5 545.927 207.7 545.327C207.9 544.727 200.7 527.627 191.7 507.327C124.2 355.227 109 320.627 107.1 314.527C103.6 303.127 102.4 290.527 103.7 278.627C104.9 268.627 108.2 255.527 109.9 254.527C110.4 254.227 109.7 257.327 108.4 261.427C102.8 279.027 103 299.027 108.9 316.327C110.4 320.827 130.4 366.527 153.2 417.927C176 469.327 198 518.927 202.1 528.127C206.2 537.427 209.9 544.927 210.4 544.927C210.8 544.927 211 544.327 210.7 543.627C210.4 543.027 188.3 492.127 161.5 430.527C128.2 353.727 112.3 316.127 111 310.527C108.2 299.227 107.5 286.927 108.9 276.927C110.3 267.827 113.6 256.027 115.2 254.427C116 253.727 116 254.027 115.5 255.427C115 256.527 113.6 261.427 112.2 266.427C108.9 278.727 108.7 297.527 111.9 309.827C113.2 315.027 123.4 339.927 138.1 373.827C151.4 404.427 173.3 454.827 186.7 485.927C200.2 517.027 211.6 542.827 212 543.227C212.4 543.727 214.2 543.327 216 542.427C217.7 541.527 219.4 541.027 219.7 541.327C220.1 541.627 218.7 542.627 216.7 543.427C214.6 544.227 213 545.327 213 545.827C213 546.227 214.4 549.727 216.1 553.427C217.7 557.127 218.9 560.327 218.6 560.627C218.1 561.127 217 558.727 213.3 549.727C212.5 547.627 211.4 545.927 210.9 545.927C210.4 545.927 211.2 548.527 212.6 551.627C216.2 559.627 217 561.927 216.5 561.927C216.2 561.927 214.4 558.527 212.5 554.227C210.5 550.027 208.7 546.827 208.4 547.127C208.1 547.427 209.3 550.727 211 554.527C212.7 558.227 213.9 561.727 213.7 562.227C213.6 562.727 211.9 559.727 210.1 555.527C208.3 551.327 206.6 547.927 206.3 547.927C206.1 547.927 204.5 548.627 202.9 549.527C201.2 550.327 199.4 550.927 198.7 550.627C198.1 550.427 199.5 549.527 201.9 548.627C204.4 547.527 206 546.327 205.7 545.627C205.4 544.927 182.5 494.227 154.7 432.727C126.9 371.327 103.2 318.227 102.1 314.627C97.4 299.327 96.9 280.027 100.9 265.427C103.8 255.027 104.2 253.827 104.7 254.327C104.9 254.527 104.2 257.727 103.1 261.327Z" fill="#1F1F1F"/>
<path d="M7.3 543.127C5.1 546.027 5.2 546.827 8.5 551.527C10.4 554.227 12 556.727 12 557.027C12 557.327 9.3 559.727 6 562.327C2.7 564.927 0 567.427 0 567.827C0 568.227 3.7 571.227 8.3 574.527C18.5 581.927 20.7 584.127 23.5 590.527C27.9 600.127 35.4 606.427 48.8 611.627C55 614.127 56.9 614.327 75.3 614.727C96.8 615.127 97.4 615.027 92 609.927C89.8 607.927 86.1 606.427 77.2 604.027C70.7 602.327 64.9 600.927 64.4 600.927C63.8 600.927 60.2 596.127 56.3 590.127C52.5 584.227 46.1 576.027 42.1 571.827C35.8 564.927 35 563.727 35 560.127V556.227L30.3 558.627C25.1 561.327 20.6 561.227 16.4 558.427C14.3 557.027 14 556.127 14 550.627C14 547.027 13.5 543.827 12.8 543.127C11.2 541.527 8.5 541.627 7.3 543.127Z" fill="#1F1F1F"/>
<path d="M227 574.028C227 578.928 224.8 583.028 221 585.328C217.3 587.428 214.6 587.328 208.2 584.728C204.2 583.028 202.5 582.728 201.2 583.528C199 584.928 198.5 587.628 200.1 589.628C201.4 591.128 205.7 591.028 211.6 589.328C213.6 588.828 213.8 589.228 214.5 596.628C214.9 600.928 215.4 604.728 215.6 605.128C215.8 605.428 220.3 604.228 225.5 602.328C234.4 599.228 235.8 598.928 245.8 599.128L256.5 599.428L286.3 588.928C302.6 583.228 316 578.228 316 577.828C316 576.628 308.7 573.628 304.5 573.228C302.2 572.928 298 573.528 294.5 574.628C289.2 576.328 285.7 576.428 265.7 576.228C243.2 575.928 242.9 575.928 235.5 572.928C231.3 571.228 227.7 569.928 227.5 569.928C227.2 569.928 227 571.728 227 574.028Z" fill="#1F1F1F"/>
<path d="M231.546 62.8827C237.675 70.4772 235.487 80.7276 234.359 81.6382C233.231 82.5489 233.59 73.775 227.46 66.1805C221.329 58.586 222.233 46.0478 223.361 45.1371C224.49 44.2265 225.416 55.2882 231.546 62.8827Z" fill="black"/>
<path d="M216.076 57.2869C223.921 63.0921 224.386 73.5631 223.524 74.7286C222.661 75.8942 220.798 67.313 212.953 61.5078C205.106 55.7029 202.822 43.3415 203.684 42.1759C204.547 41.0103 208.23 51.4818 216.076 57.2869Z" fill="black"/>
<path d="M214.829 75.7349C222.375 78.3145 224.846 87.7626 224.377 89.1346C223.908 90.5066 220.676 83.283 213.13 80.7034C205.584 78.1244 201.254 67.5786 201.723 66.2066C202.192 64.8346 207.283 73.1554 214.829 75.7349Z" fill="black"/>
<rect x="231" y="92.981" width="3.64286" height="7" transform="rotate(-54.9143 231 92.981)" fill="#1F1F1F"/>
<path d="M147.002 68.7063C147.001 68.3249 147.31 68.0104 147.689 68.0558C148.174 68.114 148.651 68.235 149.106 68.4165C149.774 68.6832 150.381 69.0752 150.893 69.5701C151.405 70.065 151.812 70.6531 152.09 71.3008C152.369 71.9485 152.513 72.6432 152.515 73.3451C152.517 74.0471 152.377 74.7425 152.102 75.3918C151.828 76.0411 151.424 76.6316 150.915 77.1294C150.406 77.6272 149.8 78.0226 149.134 78.2932C148.68 78.4772 148.204 78.601 147.719 78.662C147.341 78.7095 147.029 78.3969 147.028 78.0155V78.0155C147.027 77.634 147.338 77.3298 147.714 77.2662C148.012 77.2156 148.305 77.1328 148.586 77.0186C149.081 76.818 149.529 76.5248 149.907 76.1556C150.285 75.7864 150.584 75.3486 150.788 74.867C150.991 74.3855 150.606 74.0511 150.605 73.5305C150.604 73.442 150.587 73.3367 150.562 73.2225C150.473 72.8131 150.192 70.8408 149.891 70.5497V70.5497C149.511 70.1826 149.061 69.8919 148.565 69.6942C148.284 69.5816 147.99 69.5004 147.691 69.4516C147.315 69.3902 147.003 69.0877 147.002 68.7063V68.7063Z" fill="#1F1F1F"/>
<path d="M155.573 72.6346C155.583 72.3095 155.318 72.0272 155.014 72.1424V72.1424C154.83 72.2122 154.661 72.3176 154.518 72.4526C154.374 72.5875 154.259 72.7494 154.178 72.929C154.097 73.1086 154.052 73.3024 154.046 73.4993C154.04 73.6962 154.073 73.8923 154.143 74.0765C154.213 74.2607 154.318 74.4294 154.453 74.5729C154.588 74.7164 154.75 74.8319 154.929 74.9128V74.9128C155.226 75.0464 155.508 74.7809 155.518 74.4557L155.546 73.5452L155.573 72.6346Z" fill="#1F1F1F"/>
</svg>
