<svg height="368pt" viewBox="0 0 368 368" width="368pt" xmlns="http://www.w3.org/2000/svg"><path d="m280 64c-3.785156 0-7.511719.230469-11.160156.703125-10.328125-37.925781-44.816406-64.703125-84.839844-64.703125s-74.511719 26.777344-84.839844 64.703125c-3.648437-.472656-7.375-.703125-11.160156-.703125-48.519531 0-88 39.480469-88 88 0 28.710938 14.160156 55.585938 37.425781 71.921875-3.570312 7.453125-5.425781 15.644531-5.425781 24.078125 0 30.871094 25.121094 56 56 56 15.65625 0 29.832031-6.457031 40-16.839844v64.839844h-56c-4.414062 0-8 3.574219-8 8s3.585938 8 8 8h224c4.414062 0 8-3.574219 8-8s-3.585938-8-8-8h-56v-64.839844c10.167969 10.382813 24.34375 16.839844 40 16.839844 30.878906 0 56-25.128906 56-56 0-8.433594-1.855469-16.601562-5.425781-24.015625 23.265625-16.398437 37.425781-43.304687 37.425781-71.984375 0-48.519531-39.480469-88-88-88zm35.847656 150.425781s-.007812 0-.015625.007813c-10.824219 6.261718-23.214843 9.566406-35.832031 9.566406-4.414062 0-8 3.574219-8 8s3.585938 8 8 8c12.679688 0 25.121094-2.878906 36.535156-8.113281 2.242188 5.007812 3.464844 10.457031 3.464844 16.113281 0 22.054688-17.945312 40-40 40s-40-17.945312-40-40v-48c0-13.230469 10.769531-24 24-24 4.414062 0 8-3.574219 8-8s-3.585938-8-8-8c-22.054688 0-40 17.945312-40 40v152h-32v-216c0-4.425781-3.585938-8-8-8s-8 3.574219-8 8v216h-32v-152c0-22.054688-17.945312-40-40-40-4.414062 0-8 3.574219-8 8s3.585938 8 8 8c13.230469 0 24 10.769531 24 24v48c0 22.054688-17.945312 40-40 40s-40-17.945312-40-40c0-5.648438 1.199219-11.128906 3.441406-16.167969 11.390625 5.265625 23.839844 8.167969 36.558594 8.167969 4.414062 0 8-3.574219 8-8s-3.585938-8-8-8c-12.648438 0-25.03125-3.328125-35.808594-9.625-.007812-.007812-.023437-.007812-.03125-.007812-.007812-.007813-.015625-.015626-.023437-.015626-22.289063-12.792968-36.136719-36.679687-36.136719-62.351562 0-39.703125 32.304688-72 72-72 2.832031 0 5.609375.183594 8.335938.503906-.207032 2.441406-.335938 4.9375-.335938 7.496094v16c0 4.425781 3.585938 8 8 8s8-3.574219 8-8v-16c0-4.449219.382812-8.671875 1.136719-12.550781.007812-.023438-.007813-.042969 0-.066407 0-.023437.023437-.039062.023437-.0625 6.097656-34.375 35.886719-59.320312 70.839844-59.320312s64.742188 24.945312 70.839844 59.320312c0 .023438.023437.039063.023437.0625 0 .023438-.007812.042969 0 .066407.753907 3.878906 1.136719 8.101562 1.136719 12.550781v16c0 4.425781 3.585938 8 8 8s8-3.574219 8-8v-16c0-2.558594-.128906-5.054688-.335938-7.496094 2.726563-.320312 5.503907-.503906 8.335938-.503906 39.695312 0 72 32.296875 72 72 0 25.648438-13.855469 49.558594-36.152344 62.425781zm0 0"/></svg>