<svg width="368" height="368" viewBox="0 0 368 368" fill="none" xmlns="http://www.w3.org/2000/svg">
<g clip-path="url(#clip0)">
<path d="M280 64C276.215 64 272.488 64.2305 268.84 64.7031C258.512 26.7773 224.023 0 184 0C143.977 0 109.488 26.7773 99.1602 64.7031C95.5117 64.2305 91.7852 64 88 64C39.4805 64 0 103.48 0 152C0 180.711 14.1602 207.586 37.4258 223.922C33.8555 231.375 32 239.566 32 248C32 278.871 57.1211 304 88 304C103.656 304 117.832 297.543 128 287.16V352H72C67.5859 352 64 355.574 64 360C64 364.426 67.5859 368 72 368H296C300.414 368 304 364.426 304 360C304 355.574 300.414 352 296 352H240V287.16C250.168 297.543 264.344 304 280 304C310.879 304 336 278.871 336 248C336 239.566 334.145 231.398 330.574 223.984C353.84 207.586 368 180.68 368 152C368 103.48 328.52 64 280 64ZM315.848 214.426C315.848 214.426 315.84 214.426 315.832 214.434C305.008 220.695 292.617 224 280 224C275.586 224 272 227.574 272 232C272 236.426 275.586 240 280 240C292.68 240 305.121 237.121 316.535 231.887C318.777 236.895 320 242.344 320 248C320 270.055 302.055 288 280 288C257.945 288 240 270.055 240 248V200C240 186.77 250.77 176 264 176C268.414 176 272 172.426 272 168C272 163.574 268.414 160 264 160C241.945 160 224 177.945 224 200V352H192V136C192 131.574 188.414 128 184 128C179.586 128 176 131.574 176 136V352H144V200C144 177.945 126.055 160 104 160C99.5859 160 96 163.574 96 168C96 172.426 99.5859 176 104 176C117.23 176 128 186.77 128 200V248C128 270.055 110.055 288 88 288C65.9453 288 48 270.055 48 248C48 242.352 49.1992 236.871 51.4414 231.832C62.832 237.098 75.2812 240 88 240C92.4141 240 96 236.426 96 232C96 227.574 92.4141 224 88 224C75.3516 224 62.9688 220.672 52.1914 214.375C52.1836 214.367 52.168 214.367 52.1602 214.367C52.1523 214.359 52.1445 214.352 52.1367 214.352C29.8477 201.559 16 177.672 16 152C16 112.297 48.3047 80 88 80C90.832 80 93.6094 80.1836 96.3359 80.5039C96.1289 82.9453 96 85.4414 96 88V104C96 108.426 99.5859 112 104 112C108.414 112 112 108.426 112 104V88C112 83.5508 112.383 79.3281 113.137 75.4492C113.145 75.4258 113.129 75.4063 113.137 75.3828C113.137 75.3594 113.16 75.3438 113.16 75.3203C119.258 40.9453 149.047 16 184 16C218.953 16 248.742 40.9453 254.84 75.3203C254.84 75.3438 254.863 75.3594 254.863 75.3828C254.863 75.4063 254.855 75.4258 254.863 75.4492C255.617 79.3281 256 83.5508 256 88V104C256 108.426 259.586 112 264 112C268.414 112 272 108.426 272 104V88C272 85.4414 271.871 82.9453 271.664 80.5039C274.391 80.1836 277.168 80 280 80C319.695 80 352 112.297 352 152C352 177.648 338.145 201.559 315.848 214.426Z" fill="url(#paint0_linear)"/>
</g>
<defs>
<linearGradient id="paint0_linear" x1="184" y1="0" x2="184" y2="368" gradientUnits="userSpaceOnUse">
<stop stop-color="#26A099"/>
<stop offset="1" stop-color="#145450"/>
</linearGradient>
<clipPath id="clip0">
<rect width="368" height="368" fill="white"/>
</clipPath>
</defs>
</svg>
