<svg id="Layer_1" enable-background="new 0 0 511.83 511.83" height="512" viewBox="0 0 511.83 511.83" width="512" xmlns="http://www.w3.org/2000/svg"><g><g><path d="m94.889 276.066c-11.457-5.327-25.122-.355-30.462 11.085l-41.645 89.218c-5.246 11.238-.153 25.224 11.114 30.463l195.4 90.856c14.969 6.959 27.839-3.87 33.335-17.24l32.476 26.406c9.574 7.785 24.478 6.241 32.254-3.287l62.289-76.311c3.873-4.745 5.663-10.712 5.041-16.804-.008-.076-.026-.15-.034-.226h67.848c15.778 0 28.614-12.836 28.614-28.613v-46.613c0-4.143-3.358-7.5-7.5-7.5s-7.5 3.357-7.5 7.5v46.615c0 7.507-6.107 13.613-13.614 13.613h-75.906c-.086-.072-.163-.153-.25-.225l-69.585-56.581v-142.39c0-7.507 6.107-13.614 13.614-13.614h132.128c7.507 0 13.614 6.107 13.614 13.614v101.164c.334 9.884 14.623 9.981 15 0v-101.164c0-15.778-12.836-28.614-28.614-28.614h-58.566v-132.925c0-11.784-9.599-21.371-21.398-21.371h-31.703v-5.622c0-4.143-3.358-7.5-7.5-7.5s-7.5 3.357-7.5 7.5v5.622h-19.463v-5.622c0-4.143-3.358-7.5-7.5-7.5s-7.5 3.357-7.5 7.5v5.622h-88.39v-5.622c0-4.143-3.358-7.5-7.5-7.5s-7.5 3.357-7.5 7.5v5.622h-19.463v-5.622c0-4.143-3.358-7.5-7.5-7.5s-7.5 3.357-7.5 7.5v5.622h-31.271c-11.799 0-21.398 9.587-21.398 21.371v76.007c.334 9.908 14.652 9.945 15 0v-32.938h263.086v89.857h-58.564c-15.778 0-28.614 12.836-28.614 28.614v57.934h-170.594c-2.931 0-5.315-2.373-5.315-5.291v-100.176c0-4.143-3.358-7.5-7.5-7.5s-7.5 3.357-7.5 7.5v100.176c0 11.188 9.113 20.291 20.315 20.291h50.448l-28.061 34.377zm30.964-213.504v-28.069c0-3.513 2.87-6.371 6.398-6.371h31.271v5.621c.344 9.931 14.66 9.923 15 0v-5.621h19.463v5.621c.344 9.931 14.66 9.923 15 0v-5.621h88.39v5.621c.344 9.931 14.66 9.923 15 0v-5.621h19.463v5.621c.344 9.931 14.66 9.923 15 0v-5.621h31.703c3.528 0 6.398 2.858 6.398 6.371v28.068h-263.086zm76.638 242.111c12.03 0 23.97-4.357 33.275-12.776l115.096 93.586c-5.341 9.023-7.66 19.471-6.575 30.095 1.086 10.632 5.474 20.405 12.538 28.172l-19.886 24.363c-18.6-10.946-42.395-8.519-58.384 5.95l-115.083-93.575c5.341-9.023 7.66-19.472 6.575-30.096-1.086-10.632-5.474-20.405-12.537-28.171l19.893-24.371c7.772 4.574 16.448 6.823 25.088 6.823zm-15.443-18.64 11.546-14.145c3.568-3.46 7.292-3.838 11.171-1.133l14.17 11.522c-10.481 8.261-24.949 9.733-36.887 3.756zm-39.177 47.996c4.054 5.101 6.576 11.255 7.253 17.888.677 6.625-.545 13.151-3.478 18.956l-14.196-11.543c-3.247-2.64-3.991-7.643-1.145-11.131zm-16.42 39.757 49.709 40.419c-17.316 12.464-43.35 4.628-50.419-15.827-2.934-8.052-2.669-16.742.71-24.592zm-6.767-35.072c-5.167 6.33-6.538 15.038-3.63 22.665-7.759 12.495-9.449 28.295-4.407 42.135 11.063 30.988 51.355 41.925 76.466 20.41l34.201 27.809c-8.938 3.737-16.649 10.045-22.1 18.216l-134.575-62.575c2.958-10.05 2.643-20.741-1.011-30.77-3.662-10.05-10.318-18.457-19.077-24.261l13.289-28.469c20.179 6.216 43.706-2.403 55.05-20.107l24.878 11.568zm-36.119-49.046 16.49 7.667c-3.956 5.19-9.306 9.157-15.58 11.443-6.244 2.275-12.854 2.684-19.185 1.276l7.729-16.559c1.846-3.955 6.576-5.673 10.546-3.827zm-52.454 99.088c-.723-1.984-.629-4.13.263-6.043l7.724-16.548c5.187 3.956 9.151 9.304 11.435 15.575 2.277 6.249 2.685 12.865 1.273 19.202l-16.586-7.712c-1.925-.894-3.384-2.484-4.109-4.474zm210.055 91.503c-1.847 3.957-6.579 5.671-10.546 3.828l-16.57-7.705c5.442-7.074 13.47-11.821 22.444-13.12l9.138 7.43zm69.574 13.825c-2.763 3.385-7.774 3.896-11.171 1.133l-14.17-11.522c10.481-8.261 24.949-9.733 36.887-3.756zm62.289-76.312-11.56 14.162c-4.054-5.1-6.583-11.248-7.26-17.88-.676-6.624.555-13.146 3.487-18.949l14.188 11.537c3.463 3.395 3.844 7.105 1.145 11.13zm-76.267-148.805v57.26l-70.42-57.26z"/><path d="m226.562 420.504c20.565 16.746 51.148 13.713 68.08-7.029 8.192-10.037 11.98-22.649 10.666-35.514-1.31-12.823-7.538-24.363-17.536-32.493-20.664-16.8-51.204-13.646-68.08 7.029-8.192 10.036-11.98 22.648-10.667 35.513 1.31 12.824 7.538 24.363 17.537 32.494zm4.75-58.523c11.69-14.321 32.797-16.434 46.997-4.875 6.886 5.599 11.174 13.547 12.077 22.379.906 8.873-1.709 17.576-7.364 24.505-11.657 14.28-32.738 16.467-46.997 4.875-6.886-5.599-11.175-13.547-12.077-22.38-.906-8.873 1.709-17.575 7.364-24.504z"/><path d="m235.323 158.776h44.147c4.142 0 7.5-3.357 7.5-7.5v-44.062c0-4.143-3.358-7.5-7.5-7.5h-44.147c-4.142 0-7.5 3.357-7.5 7.5v44.062c0 4.143 3.358 7.5 7.5 7.5zm7.5-44.062h29.147v29.062h-29.147z"/><path d="m359.429 158.776c4.142 0 7.5-3.357 7.5-7.5v-44.062c0-4.143-3.358-7.5-7.5-7.5h-44.147c-4.142 0-7.5 3.357-7.5 7.5v44.062c0 4.143 3.358 7.5 7.5 7.5zm-36.648-44.062h29.147v29.062h-29.147z"/><path d="m227.823 223.892c0 4.143 3.358 7.5 7.5 7.5h44.147c4.142 0 7.5-3.357 7.5-7.5v-44.062c0-4.143-3.358-7.5-7.5-7.5h-44.147c-4.142 0-7.5 3.357-7.5 7.5zm15-36.563h29.147v29.062h-29.147z"/><path d="m462.587 253.492v-47.46c0-4.143-3.358-7.5-7.5-7.5h-117.294c-4.142 0-7.5 3.357-7.5 7.5v47.46c0 4.143 3.358 7.5 7.5 7.5h117.294c4.142 0 7.5-3.357 7.5-7.5zm-15-7.5h-102.294v-32.46h102.294z"/><path d="m342.317 280.203c-9.652 0-9.668 15 0 15 9.652 0 9.668-15 0-15z"/><path d="m369.375 280.203c-9.652 0-9.668 15 0 15 9.651 0 9.667-15 0-15z"/><path d="m396.432 280.203c-9.652 0-9.668 15 0 15 9.652 0 9.668-15 0-15z"/><path d="m423.49 280.203c-9.652 0-9.668 15 0 15 9.652 0 9.668-15 0-15z"/><path d="m450.548 280.203c-9.652 0-9.668 15 0 15 9.652 0 9.668-15 0-15z"/><path d="m342.317 307.419c-9.652 0-9.668 15 0 15 9.652 0 9.668-15 0-15z"/><path d="m369.375 307.419c-9.652 0-9.668 15 0 15 9.651 0 9.667-15 0-15z"/><path d="m396.432 307.419c-9.652 0-9.668 15 0 15 9.652 0 9.668-15 0-15z"/><path d="m423.49 307.419c-9.652 0-9.668 15 0 15 9.652 0 9.668-15 0-15z"/><path d="m450.548 322.419c9.652 0 9.668-15 0-15-9.652 0-9.668 15 0 15z"/><path d="m342.317 349.635c9.652 0 9.668-15 0-15-9.652 0-9.668 15 0 15z"/><path d="m369.375 334.635c-9.652 0-9.668 15 0 15 9.651 0 9.667-15 0-15z"/><path d="m396.432 334.635c-9.652 0-9.668 15 0 15 9.652 0 9.668-15 0-15z"/><path d="m423.49 334.635c-9.652 0-9.668 15 0 15 9.652 0 9.668-15 0-15z"/><path d="m369.375 376.852c9.652 0 9.668-15 0-15-9.652 0-9.668 15 0 15z"/><path d="m396.432 376.852c9.652 0 9.668-15 0-15-9.651 0-9.667 15 0 15z"/><path d="m423.49 376.852c9.652 0 9.668-15 0-15-9.652 0-9.668 15 0 15z"/><path d="m443.048 369.352c.344 9.931 14.66 9.923 15 0v-27.216c-.344-9.931-14.66-9.923-15 0z"/></g><path d="m155.365 158.776h44.147c4.142 0 7.5-3.357 7.5-7.5v-44.062c0-4.143-3.358-7.5-7.5-7.5h-44.147c-4.142 0-7.5 3.357-7.5 7.5v44.062c0 4.143 3.358 7.5 7.5 7.5zm7.5-44.062h29.147v29.062h-29.147z"/><path d="m147.865 223.892c0 4.143 3.358 7.5 7.5 7.5h44.147c4.142 0 7.5-3.357 7.5-7.5v-44.062c0-4.143-3.358-7.5-7.5-7.5h-44.147c-4.142 0-7.5 3.357-7.5 7.5zm15-36.563h29.147v29.062h-29.147z"/></g></svg>