<svg id="Capa_1" enable-background="new 0 0 512 512" height="512" viewBox="0 0 512 512" width="512" xmlns="http://www.w3.org/2000/svg"><g><path d="m48.669 257.107c5.363 6.693 10.429 13.015 12.014 18.947 1.695 6.341.453 14.605-.861 23.355-1.877 12.498-3.819 25.422 2.412 36.19 6.329 10.938 18.603 15.731 30.472 20.367 4.688 1.831 9.225 3.603 13.093 5.637l-50.796 87.981c-1.818 3.148-1.787 7.042.083 10.16 1.87 3.119 5.272 4.989 8.923 4.862l49.552-1.636 23.36 43.731c1.745 3.267 5.149 5.298 8.836 5.298 3.572 0 6.885-1.908 8.676-5.009l50.548-87.553c5.547 1.928 11.428 6.64 17.627 11.607 9.584 7.68 20.448 16.384 33.392 16.384s23.808-8.705 33.392-16.384c6.199-4.967 12.079-9.678 17.626-11.607l11.616 20.119c2.077 3.599 6.668 4.811 10.245 2.745 3.587-2.071 4.816-6.658 2.745-10.245l-7.652-13.253c14.748 1.791 30.889 6.211 43.913-1.324 10.938-6.328 15.731-18.602 20.367-30.472 2.132-5.46 4.185-10.717 6.666-14.948l44.605 77.259-43.688-1.442c-3.828-.114-7.357 1.902-9.167 5.292l-20.595 38.556-16.752-29.015c-2.071-3.587-6.658-4.816-10.245-2.745s-4.816 6.658-2.745 10.245l21.236 36.782c1.791 3.1 5.103 5.008 8.675 5.008 3.689 0 7.092-2.033 8.836-5.298l23.36-43.731 49.553 1.636c3.63.107 7.052-1.744 8.922-4.862 1.869-3.119 1.901-7.012.083-10.159l-50.796-87.981c3.867-2.034 8.405-3.806 13.093-5.637 11.87-4.635 24.144-9.429 30.472-20.367 6.23-10.769 4.289-23.692 2.412-36.191-1.314-8.75-2.556-17.015-.861-23.356 1.585-5.932 6.651-12.254 12.014-18.947 7.68-9.584 16.384-20.447 16.384-33.392s-8.705-23.808-16.384-33.393c-5.363-6.693-10.429-13.015-12.014-18.947-1.695-6.341-.453-14.606.861-23.355 1.877-12.498 3.819-25.422-2.412-36.19-6.329-10.938-18.603-15.731-30.472-20.367-8.145-3.181-15.838-6.185-20.348-10.694-4.509-4.509-7.513-12.202-10.694-20.347-4.636-11.87-9.429-24.144-20.367-30.472-10.769-6.231-23.692-4.29-36.191-2.412-8.75 1.314-17.013 2.555-23.355.861-5.932-1.585-12.254-6.651-18.947-12.014-9.584-7.68-20.447-16.384-33.391-16.384s-23.808 8.705-33.392 16.384c-6.693 5.363-13.015 10.429-18.947 12.014-6.341 1.695-14.606.454-23.355-.861-12.499-1.878-25.422-3.82-36.191 2.412-10.938 6.328-15.731 18.602-20.367 30.472-3.181 8.145-6.185 15.838-10.694 20.347s-12.203 7.514-20.348 10.694c-11.87 4.636-24.144 9.429-30.472 20.367-6.23 10.769-4.289 23.692-2.412 36.191 1.314 8.75 2.556 17.015.861 23.356-1.585 5.932-6.651 12.253-12.014 18.947-7.68 9.584-16.384 20.448-16.384 33.392s8.705 23.807 16.384 33.392zm97.258 234.618-20.594-38.554c-1.811-3.393-5.307-5.42-9.168-5.294l-43.688 1.442 44.605-77.259c2.48 4.231 4.533 9.488 6.665 14.948 4.636 11.87 9.429 24.144 20.367 30.472 13.027 7.537 29.19 3.112 43.914 1.323zm-85.552-292.023c6.096-7.608 12.4-15.475 14.8-24.453 2.501-9.356.966-19.575-.519-29.457-1.562-10.403-3.039-20.229.562-26.451 3.696-6.389 13.046-10.041 22.945-13.906 9.226-3.603 18.766-7.329 25.498-14.06s10.457-16.271 14.06-25.497c3.866-9.899 7.517-19.249 13.906-22.945 6.223-3.6 16.048-2.124 26.451-.562 9.882 1.485 20.101 3.021 29.457.519 8.978-2.399 16.845-8.704 24.454-14.8 8.4-6.732 16.335-13.09 24.011-13.09s15.611 6.358 24.012 13.09c7.608 6.096 15.476 12.4 24.454 14.799 9.357 2.501 19.575.966 29.457-.519 10.403-1.562 20.229-3.038 26.452.562 6.389 3.696 10.04 13.046 13.906 22.945 3.603 9.226 7.329 18.766 14.06 25.497 6.731 6.732 16.271 10.458 25.498 14.06 9.899 3.866 19.249 7.517 22.945 13.906 3.6 6.222 2.124 16.048.561 26.451-1.484 9.882-3.02 20.101-.519 29.457 2.399 8.978 8.703 16.845 14.799 24.453 6.732 8.401 13.09 16.337 13.09 24.013s-6.358 15.611-13.09 24.012c-6.096 7.608-12.4 15.475-14.8 24.453-2.501 9.356-.966 19.575.519 29.457 1.562 10.403 3.039 20.229-.562 26.451-3.696 6.389-13.046 10.041-22.945 13.906-25.243 9.858-29.855 14.714-39.558 39.557-3.866 9.899-7.517 19.249-13.906 22.945-6.224 3.6-16.049 2.124-26.451.562-27.034-4.062-33.434-2.125-53.91 14.281-8.401 6.731-16.336 13.09-24.012 13.09s-15.611-6.358-24.012-13.09c-7.608-6.096-15.476-12.4-24.454-14.799-19.184-5.128-43.814 6.954-55.908-.043-6.389-3.697-10.04-13.046-13.906-22.945-9.772-25.024-14.537-29.788-39.558-39.558-9.899-3.866-19.249-7.517-22.945-13.906-3.6-6.222-2.124-16.048-.561-26.451 1.484-9.882 3.02-20.1.519-29.457-2.399-8.978-8.704-16.845-14.8-24.454-6.731-8.401-13.09-16.336-13.09-24.012 0-7.674 6.359-15.609 13.09-24.011z"/><path d="m269.294 247.763c-.539 5.718-1.278 11.568-2.195 17.388-.645 4.092 2.15 7.932 6.241 8.576 4.097.641 7.931-2.15 8.576-6.241.831-5.274 1.523-10.575 2.062-15.792 32.834-3.392 59.942-11.93 73.362-16.797 4.765-1.728 7.844-6.117 7.844-11.182s-3.079-9.454-7.844-11.182c-13.42-4.867-40.528-13.405-73.362-16.797-3.393-32.835-11.93-59.943-16.797-73.362-1.728-4.765-6.117-7.844-11.182-7.844s-9.454 3.079-11.182 7.844c-4.867 13.419-13.405 40.528-16.797 73.362-32.834 3.392-59.942 11.93-73.362 16.797-4.765 1.728-7.844 6.117-7.844 11.182 0 5.064 3.079 9.454 7.844 11.182 13.419 4.867 40.526 13.405 73.362 16.797 3.393 32.834 11.93 59.942 16.797 73.362 1.728 4.765 6.117 7.844 11.182 7.844s9.454-3.079 11.181-7.844c2.554-7.04 4.931-14.519 7.066-22.228 1.105-3.992-1.234-8.124-5.227-9.229-3.989-1.104-8.124 1.234-9.229 5.227-1.189 4.296-2.457 8.512-3.789 12.61-4.729-14.565-10.806-37.276-13.296-63.673-.538-5.695-5.061-10.217-10.753-10.753-26.395-2.49-49.103-8.565-63.668-13.295 14.565-4.729 37.273-10.805 63.668-13.294 5.694-.537 10.216-5.06 10.753-10.753 2.49-26.396 8.565-49.103 13.294-63.667 4.729 14.565 10.805 37.272 13.294 63.667.537 5.694 5.06 10.216 10.754 10.753 26.395 2.489 49.102 8.565 63.667 13.294-14.565 4.729-37.272 10.805-63.667 13.294-5.692.536-10.215 5.059-10.753 10.754z"/><path d="m87.011 231.215h19.239c1.081 21.834 6.854 42.454 16.33 60.87l-16.678 9.629c-3.587 2.071-4.816 6.658-2.745 10.245 2.077 3.599 6.668 4.811 10.245 2.745l16.7-9.642c11.541 17.8 26.751 33.01 44.551 44.551l-9.642 16.7c-2.071 3.587-.842 8.174 2.745 10.245 3.573 2.063 8.165.856 10.245-2.745l9.63-16.679c18.416 9.476 39.036 15.249 60.87 16.329v19.239c0 4.142 3.358 7.5 7.5 7.5s7.5-3.358 7.5-7.5v-19.239c21.834-1.081 42.454-6.854 60.87-16.329l9.63 16.679c2.077 3.599 6.668 4.811 10.245 2.745 3.587-2.071 4.816-6.658 2.745-10.245l-9.642-16.7c17.8-11.541 33.01-26.751 44.551-44.551l16.7 9.642c3.573 2.063 8.165.856 10.245-2.745 2.071-3.587.842-8.174-2.745-10.245l-16.678-9.629c9.476-18.416 15.249-39.036 16.33-60.87h19.239c4.142 0 7.5-3.358 7.5-7.5s-3.358-7.5-7.5-7.5h-19.241c-1.081-21.834-6.854-42.454-16.33-60.87l16.678-9.629c3.587-2.071 4.816-6.658 2.745-10.245s-6.658-4.816-10.245-2.745l-16.7 9.642c-11.541-17.8-26.751-33.01-44.551-44.551l9.642-16.7c2.071-3.587.842-8.174-2.745-10.245-3.588-2.072-8.174-.842-10.245 2.745l-9.63 16.679c-18.416-9.476-39.036-15.249-60.87-16.33v-19.24c0-4.142-3.358-7.5-7.5-7.5s-7.5 3.358-7.5 7.5v19.24c-5.135.254-10.254.767-15.292 1.536-4.095.625-6.908 4.451-6.283 8.545s4.452 6.909 8.545 6.283c6.743-1.029 13.649-1.55 20.529-1.55 74.404 0 134.936 60.532 134.936 134.936 0 74.403-60.532 134.935-134.936 134.935s-134.936-60.532-134.936-134.935c0-54.522 32.539-102.978 81.865-124.101 3.808-1.631 5.572-6.04 3.942-9.847s-6.039-5.572-9.847-3.942c-3.207 1.373-6.348 2.85-9.42 4.423l-9.602-16.633c-2.071-3.588-6.659-4.817-10.245-2.745-3.587 2.071-4.816 6.658-2.745 10.245l9.601 16.629c-18.048 11.652-33.173 26.911-44.583 44.579l-16.626-9.599c-3.587-2.072-8.174-.842-10.245 2.745s-.842 8.174 2.745 10.245l16.63 9.601c-9.524 18.598-15.208 39.287-16.281 60.898h-19.24c-4.142 0-7.5 3.358-7.5 7.5s3.358 7.501 7.5 7.501z"/></g></svg>