<svg width="512" height="512" viewBox="0 0 512 512" fill="none" xmlns="http://www.w3.org/2000/svg">
<g clip-path="url(#clip0)">
<path d="M506.829 243.122C506.751 242.8 506.662 242.48 506.563 242.164C481.928 163.612 429.979 149.754 388.236 138.619C339.77 125.689 307.751 117.148 318.006 16.5205C318.632 10.3745 315.425 4.47151 309.927 1.65251C304.429 -1.16849 297.764 -0.326488 293.138 3.77051C272.352 22.1775 257.024 45.4095 248.811 70.9525C240.84 95.7405 239.814 121.663 245.844 145.916C257.524 192.894 293.239 226.857 343.833 239.101C344.261 239.205 344.693 239.289 345.128 239.355C405.156 248.39 444.886 298.473 454.131 376.76C454.857 382.906 459.281 387.974 465.273 389.523C471.167 391.07 477.594 388.809 481.205 383.76C509.58 344.314 518.92 293.054 506.829 243.122ZM475.225 329.738C467.818 304.255 456.755 281.865 442.463 263.696C419.243 234.174 387.38 215.546 350.28 209.794C311.241 200.148 283.803 174.257 274.958 138.679C268.316 111.963 272.703 83.7695 286.4 59.1785C287.691 90.9055 295.208 114.286 309.288 131.201C327.913 153.576 354.649 160.708 380.504 167.605C420.38 178.242 458.051 188.295 477.788 250.664C484.237 277.668 483.203 305.025 475.225 329.738Z" fill="url(#paint0_linear)"/>
<path d="M207.35 256.003C162.166 232.007 131.485 212.137 118.16 187.264C105.925 164.425 105.639 134.382 117.14 80.1095C118.321 74.5345 116.241 68.7705 111.771 65.2355C107.3 61.6985 101.213 61.0015 96.0605 63.4365C68.2085 76.5915 44.2985 97.5105 26.9155 123.931C9.77048 149.99 0.46848 179.006 0.0164804 207.84C-0.35552 231.566 5.57648 254.42 17.1685 273.933C29.8825 295.333 48.9775 312.651 73.9215 325.403C84.9965 331.064 96.9885 336.299 108.585 341.362C138.647 354.486 169.732 368.056 188.386 390.254C208.906 414.673 212.403 447.284 199.392 492.884C197.716 498.758 199.769 505.061 204.582 508.822C209.407 512.591 216.024 513.04 221.301 510C272.144 480.726 300.822 435.767 299.981 386.65C299.551 361.541 291.127 336.496 275.615 314.223C259.51 291.094 236.541 271.506 207.35 256.003V256.003ZM236.073 462.009C239.907 425.187 231.712 395.179 211.354 370.953C188.178 343.373 153.817 328.374 120.588 313.868C108.888 308.761 97.8375 303.934 87.5765 298.689C49.8455 279.401 29.4015 247.303 30.0125 208.309C30.6005 170.747 50.7905 132.773 81.6165 107.774C76.3675 144.183 77.5145 174.922 91.7155 201.43C108.704 233.142 141.819 255.168 193.278 282.498C241.325 308.016 269.284 346.163 269.986 387.161C270.456 414.614 258.395 440.713 236.073 462.009V462.009Z" fill="url(#paint1_linear)"/>
<path d="M397 80H412V95C412 103.284 418.716 110 427 110C435.284 110 442 103.284 442 95V80H457C465.284 80 472 73.284 472 65C472 56.716 465.284 50 457 50H442V35C442 26.716 435.284 20 427 20C418.716 20 412 26.716 412 35V50H397C388.716 50 382 56.716 382 65C382 73.284 388.716 80 397 80Z" fill="url(#paint2_linear)"/>
<path d="M417 420H402V405C402 396.716 395.284 390 387 390C378.716 390 372 396.716 372 405V420H357C348.716 420 342 426.716 342 435C342 443.284 348.716 450 357 450H372V465C372 473.284 378.716 480 387 480C395.284 480 402 473.284 402 465V450H417C425.284 450 432 443.284 432 435C432 426.716 425.284 420 417 420Z" fill="url(#paint3_linear)"/>
<path d="M147 60H162V75C162 83.284 168.716 90 177 90C185.284 90 192 83.284 192 75V60H207C215.284 60 222 53.284 222 45C222 36.716 215.284 30 207 30H192V15C192 6.716 185.284 0 177 0C168.716 0 162 6.716 162 15V30H147C138.716 30 132 36.716 132 45C132 53.284 138.716 60 147 60Z" fill="url(#paint4_linear)"/>
</g>
<defs>
<linearGradient id="paint0_linear" x1="376.986" y1="-0.000976563" x2="376.986" y2="390.004" gradientUnits="userSpaceOnUse">
<stop stop-color="#26A099"/>
<stop offset="1" stop-color="#145450"/>
</linearGradient>
<linearGradient id="paint1_linear" x1="150" y1="61.999" x2="150" y2="512.001" gradientUnits="userSpaceOnUse">
<stop stop-color="#26A099"/>
<stop offset="1" stop-color="#145450"/>
</linearGradient>
<linearGradient id="paint2_linear" x1="427" y1="20" x2="427" y2="110" gradientUnits="userSpaceOnUse">
<stop stop-color="#26A099"/>
<stop offset="1" stop-color="#145450"/>
</linearGradient>
<linearGradient id="paint3_linear" x1="387" y1="390" x2="387" y2="480" gradientUnits="userSpaceOnUse">
<stop stop-color="#26A099"/>
<stop offset="1" stop-color="#145450"/>
</linearGradient>
<linearGradient id="paint4_linear" x1="177" y1="0" x2="177" y2="90" gradientUnits="userSpaceOnUse">
<stop stop-color="#26A099"/>
<stop offset="1" stop-color="#145450"/>
</linearGradient>
<clipPath id="clip0">
<rect width="512" height="512" fill="white"/>
</clipPath>
</defs>
</svg>
